<?xml version="1.0" encoding="utf-8"?>
<!-- Generator: Adobe Illustrator 21.0.2, SVG Export Plug-In . SVG Version: 6.00 Build 0)  -->
<svg version="1.1" id="Layer_1" xmlns="http://www.w3.org/2000/svg" xmlns:xlink="http://www.w3.org/1999/xlink" x="0px" y="0px"
	 viewBox="0 0 100 100" style="enable-background:new 0 0 100 100;" xml:space="preserve">
<path d="M59.8,46.6c0.4,0.4,0.6,0.9,0.6,1.4c0,0.5-0.2,1-0.6,1.4c-0.1,0.1-0.2,0.2-0.3,0.2c-0.1,0.1-0.2,0.1-0.3,0.2
	C59,49.9,58.9,50,58.8,50c-0.1,0-0.3,0-0.4,0s-0.3,0-0.4,0c-0.1,0-0.3-0.1-0.4-0.1c-0.1,0-0.2-0.1-0.3-0.2c-0.1-0.1-0.2-0.2-0.3-0.2
	c-0.1-0.1-0.2-0.2-0.2-0.3c-0.1-0.1-0.1-0.2-0.2-0.3c0-0.1-0.1-0.2-0.1-0.4c0-0.1,0-0.3,0-0.4s0-0.3,0-0.4c0-0.1,0.1-0.3,0.1-0.4
	s0.1-0.2,0.2-0.3c0.1-0.1,0.1-0.2,0.2-0.3c0.1-0.1,0.2-0.2,0.3-0.2c0.1-0.1,0.2-0.1,0.3-0.2c0.1,0,0.2-0.1,0.4-0.1
	c0.2,0,0.5-0.1,0.8,0c0.1,0,0.2,0.1,0.4,0.1c0.1,0.1,0.2,0.1,0.3,0.2C59.6,46.4,59.7,46.5,59.8,46.6z M66.5,54.3
	c0,0.1,0.1,0.2,0.2,0.3c0.1,0.1,0.2,0.2,0.3,0.3c0.2,0.2,0.4,0.3,0.6,0.4c0.2,0.1,0.5,0.1,0.8,0.1c0.1,0,0.3,0,0.4,0
	c0.1,0,0.3-0.1,0.4-0.1c0.1-0.1,0.2-0.1,0.3-0.2c0.1-0.1,0.2-0.2,0.3-0.3c0.4-0.4,0.6-0.9,0.6-1.4c0-0.5-0.2-1-0.6-1.4
	c-0.5-0.5-1.1-0.7-1.8-0.5c-0.1,0-0.2,0.1-0.4,0.1c-0.1,0-0.2,0.1-0.3,0.2c-0.1,0.1-0.2,0.2-0.3,0.2c-0.4,0.4-0.6,0.9-0.6,1.4
	c0,0.1,0,0.3,0,0.4C66.5,54,66.5,54.2,66.5,54.3z M70.3,42c0.5,0,1-0.2,1.4-0.6c0.4-0.4,0.6-0.9,0.6-1.4c0-0.1,0-0.3,0-0.4
	c0-0.1-0.1-0.2-0.1-0.4c0-0.1-0.1-0.2-0.2-0.4c-0.1-0.1-0.2-0.2-0.2-0.3c-0.7-0.8-2.1-0.8-2.8,0c-0.1,0.1-0.2,0.2-0.2,0.3
	c-0.1,0.1-0.1,0.2-0.2,0.4c-0.1,0.1-0.1,0.2-0.1,0.4c0,0.1,0,0.3,0,0.4c0,0.5,0.2,1,0.6,1.4C69.3,41.8,69.8,42,70.3,42z M84.1,91.5
	c0.2,1.1-0.6,2.1-1.7,2.3L62.7,97c-0.1,0-0.2,0-0.3,0c-1,0-1.8-0.7-2-1.7C60.2,94.2,61,93.2,62,93l7.9-1.3l-3.8-23.8
	c-0.1,0-0.3,0-0.4,0c-3.4,0-6.8-1.2-9.6-3.4c-3.5-2.7-5.8-6.6-6.5-11.1l-2.8-20.5c-0.1-0.2-0.1-0.4-0.1-0.6l-2.1-15.6
	c-0.1-1.1,0.6-2.1,1.7-2.2l25.8-4.1c1.1-0.2,2.1,0.5,2.3,1.6l2.9,15.4c0.1,0.2,0.1,0.4,0.1,0.6l3.8,20.4C82.6,57,77.7,65,70.1,67.3
	l3.8,23.8l7.9-1.3C82.9,89.7,83.9,90.4,84.1,91.5z M49,18.1l1.4,10.4c3.9-2.2,9-2.4,12.8,0c3.1,1.9,7.4,1.4,10.1-1l-2.4-12.8
	L49,18.1z M67.5,63.8c6.5-1,10.9-7.7,9.8-14.7l-3.2-17.2c-3.9,2.3-9.1,2.5-13,0.1C58,30,53.6,30.5,51,33l2.7,19.9
	c0.5,3.4,2.3,6.4,5,8.5C61.2,63.4,64.4,64.3,67.5,63.8z M39.8,46.1c-0.7,4.5-3,8.4-6.5,11.1c-2.8,2.2-6.2,3.4-9.6,3.4
	c-0.1,0-0.3,0-0.4,0l-3.8,23.8l7.9,1.3c1.1,0.2,1.8,1.2,1.7,2.3c-0.2,1-1,1.7-2,1.7c-0.1,0-0.2,0-0.3,0L7,86.5
	c-1.1-0.2-1.8-1.2-1.7-2.3s1.2-1.8,2.3-1.7l7.9,1.3l3.8-23.8C11.7,57.7,6.8,49.6,8.1,41.1l3.8-20.4c0-0.2,0-0.4,0.1-0.6l2.9-15.4
	c0.2-1.1,1.2-1.8,2.3-1.6L43,7.2c1.1,0.2,1.8,1.2,1.7,2.2L42.6,25c0,0.2,0,0.4-0.1,0.6L39.8,46.1z M16.1,20.1c2.7,2.5,7,3,10.1,1
	c3.9-2.4,9-2.2,12.8,0l1.4-10.4l-22-3.5L16.1,20.1z M35.8,45.5l2.7-19.8c-2.7-2.5-7-3-10.1-1.1c-3.9,2.4-9.1,2.2-13-0.1l-3.2,17.3
	c-1.1,7,3.3,13.6,9.8,14.7c3.1,0.5,6.3-0.3,8.9-2.4C33.5,52,35.2,49,35.8,45.5z M29.6,39.3c-0.4,0.4-0.6,0.9-0.6,1.4
	c0,0.5,0.2,1,0.6,1.4c0.4,0.4,0.9,0.6,1.4,0.6c0.5,0,1-0.2,1.4-0.6c0.4-0.4,0.6-0.9,0.6-1.4c0-0.5-0.2-1-0.6-1.4
	C31.7,38.5,30.3,38.5,29.6,39.3z M22.1,44.5c-0.1-0.1-0.2-0.1-0.3-0.2c-0.1,0-0.2-0.1-0.4-0.1c-0.3-0.1-0.5-0.1-0.8,0
	c-0.1,0-0.3,0.1-0.4,0.1c-0.1,0.1-0.2,0.1-0.3,0.2s-0.2,0.2-0.3,0.2c-0.4,0.4-0.6,0.9-0.6,1.4c0,0.1,0,0.3,0,0.4
	c0,0.1,0.1,0.2,0.1,0.4c0.1,0.1,0.1,0.2,0.2,0.4c0.1,0.1,0.2,0.2,0.2,0.3s0.2,0.2,0.3,0.2s0.2,0.1,0.3,0.2c0.1,0,0.2,0.1,0.4,0.1
	c0.1,0,0.3,0,0.4,0s0.3,0,0.4,0c0.1,0,0.2-0.1,0.4-0.1c0.1-0.1,0.2-0.1,0.3-0.2c0.1-0.1,0.2-0.2,0.3-0.2c0.1-0.1,0.2-0.2,0.2-0.3
	c0.1-0.1,0.1-0.2,0.2-0.4c0.1-0.1,0.1-0.2,0.1-0.4c0-0.1,0-0.3,0-0.4c0-0.5-0.2-1-0.6-1.4C22.3,44.7,22.2,44.6,22.1,44.5z
	 M20.5,34.1c0.4-0.4,0.6-0.9,0.6-1.4c0-0.5-0.2-1.1-0.6-1.4c-0.5-0.5-1.2-0.7-1.8-0.5c-0.1,0-0.3,0.1-0.4,0.1S18.1,31,18,31
	c-0.1,0.1-0.2,0.2-0.3,0.2c-0.4,0.4-0.6,0.9-0.6,1.4c0,0.5,0.2,1,0.6,1.4c0.1,0.1,0.2,0.2,0.3,0.2c0.1,0.1,0.2,0.1,0.3,0.2
	s0.2,0.1,0.4,0.1c0.1,0,0.3,0,0.4,0C19.6,34.7,20.1,34.5,20.5,34.1z M50.7,78h-3v-3c0-1.1-0.9-2-2-2s-2,0.9-2,2v3h-3
	c-1.1,0-2,0.9-2,2s0.9,2,2,2h3v3c0,1.1,0.9,2,2,2s2-0.9,2-2v-3h3c1.1,0,2-0.9,2-2S51.8,78,50.7,78z M92.7,10h-3V7c0-1.1-0.9-2-2-2
	s-2,0.9-2,2v3h-3c-1.1,0-2,0.9-2,2s0.9,2,2,2h3v3c0,1.1,0.9,2,2,2s2-0.9,2-2v-3h3c1.1,0,2-0.9,2-2S93.8,10,92.7,10z"/>
</svg>
